<svg id="Layer_1" data-name="Layer 1" xmlns="http://www.w3.org/2000/svg" viewBox="0 0 2000 2000"><defs><style>.cls-1{fill:#ffde59;}</style></defs><title>fiverr4a</title><circle class="cls-1" cx="1000" cy="1000" r="1000"/><path d="M685.48,1578.95c-149.19,0-270.56-121.38-270.56-270.56s121.37-270.56,270.56-270.56S956,1159.21,956,1308.39,834.67,1578.95,685.48,1578.95Zm0-488.49c-120.17,0-217.93,97.76-217.93,217.93s97.76,217.93,217.93,217.93,217.93-97.76,217.93-217.93S805.65,1090.46,685.48,1090.46Z"/><path d="M751.92,1916.12H614.1a78.38,78.38,0,0,1-78.29-78.29V1783.2c0-10.82-6.93-20.38-17.65-24.36-12.56-4.66-25.13-9.95-37.34-15.7-10.49-5-22.26-3.16-30,4.57l-37.38,37.39a78.37,78.37,0,0,1-110.72,0l-97.46-97.46a78.28,78.28,0,0,1,0-110.71l38.61-38.6c7.66-7.67,9.52-19.35,4.74-29.79-5.59-12.16-10.75-24.77-15.32-37.48-3.93-10.9-13.53-17.94-24.47-17.94H156a78.38,78.38,0,0,1-78.29-78.29V1237A78.38,78.38,0,0,1,156,1158.72h54.62c10.82,0,20.38-6.93,24.36-17.64,4.7-12.63,10-25.2,15.71-37.35,4.94-10.49,3.14-22.24-4.59-30l-37.38-37.38a78.39,78.39,0,0,1,0-110.72l97.47-97.45a78.27,78.27,0,0,1,110.72,0l38.6,38.6c7.66,7.66,19.34,9.5,29.77,4.73,12.4-5.68,25-10.83,37.52-15.33,10.87-3.91,17.91-13.52,17.91-24.45V778.95A78.38,78.38,0,0,1,619,700.66H756.86a78.38,78.38,0,0,1,78.29,78.29v54.62c0,10.82,6.93,20.38,17.65,24.36,12.56,4.66,25.13,9.95,37.34,15.7,10.49,5,22.26,3.16,30-4.57l37.38-37.39a78.37,78.37,0,0,1,110.72,0l97.46,97.46a78.28,78.28,0,0,1,0,110.71l-38.61,38.6c-7.66,7.66-9.52,19.35-4.74,29.76,5.6,12.21,10.76,24.81,15.32,37.51,3.93,10.9,13.53,17.94,24.47,17.94h52.78a78.38,78.38,0,0,1,78.29,78.29v137.82a78.38,78.38,0,0,1-78.29,78.29h-54.62c-10.82,0-20.38,6.93-24.36,17.64-4.7,12.63-10,25.2-15.71,37.35-4.94,10.49-3.14,22.24,4.59,30l37.39,37.38a78.39,78.39,0,0,1,0,110.72l-97.47,97.45a78.27,78.27,0,0,1-110.72,0l-38.6-38.6c-7.66-7.67-19.34-9.5-29.77-4.73-12.39,5.68-25,10.83-37.51,15.32-10.88,3.92-17.93,13.53-17.93,24.47v52.79A78.38,78.38,0,0,1,751.92,1916.12ZM469,1687.83a80.42,80.42,0,0,1,34.31,7.7c10.86,5.11,22,9.82,33.23,14,31.08,11.56,52,41.18,52,73.7v54.62a25.69,25.69,0,0,0,25.66,25.66H751.92a25.69,25.69,0,0,0,25.66-25.66V1785c0-32.89,21.2-62.63,52.74-74,11.13-4,22.36-8.58,33.38-13.63,30.15-13.83,65.91-7.68,88.93,15.36l38.6,38.6c9.7,9.69,26.59,9.69,36.28,0l97.47-97.45a25.7,25.7,0,0,0,0-36.3l-37.38-37.38c-23.27-23.27-29.29-59.29-15-89.64,5.1-10.81,9.8-22,14-33.23,11.53-31.07,41.14-52,73.69-52h54.62a25.69,25.69,0,0,0,25.66-25.66V1241.94a25.69,25.69,0,0,0-25.66-25.66h-52.78c-32.9,0-62.63-21.19-74-52.73-4.07-11.29-8.66-22.53-13.64-33.38-13.85-30.14-7.68-65.89,15.35-88.93l38.61-38.6a25.67,25.67,0,0,0,0-36.29L1031,868.88a25.7,25.7,0,0,0-36.29,0l-37.38,37.39c-23.26,23.26-59.29,29.27-89.64,15-10.86-5.11-22-9.82-33.23-14-31.08-11.56-52-41.18-52-73.7V778.95a25.69,25.69,0,0,0-25.66-25.66H619a25.69,25.69,0,0,0-25.66,25.66v52.79c0,32.89-21.19,62.62-52.73,74-11.13,4-22.36,8.58-33.39,13.63C477.11,933.18,441.35,927,418.33,904l-38.6-38.6c-9.7-9.69-26.59-9.69-36.28,0L246,962.85a25.71,25.71,0,0,0,0,36.3l37.38,37.38c23.27,23.27,29.29,59.29,15,89.64-5.1,10.81-9.8,22-14,33.23-11.53,31.07-41.14,52-73.69,52H156A25.69,25.69,0,0,0,130.38,1237v137.82A25.69,25.69,0,0,0,156,1400.49h52.78c32.91,0,62.64,21.2,74,52.75,4.07,11.29,8.66,22.53,13.63,33.34,13.85,30.17,7.68,65.92-15.34,89l-38.61,38.6a25.66,25.66,0,0,0,0,36.29L340,1747.89a25.7,25.7,0,0,0,36.29,0l37.38-37.39A78.15,78.15,0,0,1,469,1687.83Z"/><path d="M1532.2,1575.08a96.26,96.26,0,0,1-68.51-28.38l-88.21-90.87a26.31,26.31,0,1,1,37.76-36.65l87.94,90.59c17,17,45.06,17,62.32-.28l132.33-132.32a44.32,44.32,0,0,0,0-62.6l-50.76-50.76c-28.8-28.8-36.22-73.42-18.48-111,7-14.93,13.53-30.36,19.29-45.86,14.31-38.52,51-64.4,91.25-64.4h74.17a44.31,44.31,0,0,0,44.26-44.25V811.09a44.31,44.31,0,0,0-44.26-44.25h-71.67c-40.72,0-77.53-26.28-91.6-65.39-5.59-15.52-11.92-31-18.82-46-17.17-37.39-9.56-81.67,18.95-110.17l52.42-52.41a44.32,44.32,0,0,0,0-62.6L1568.23,297.88c-16.73-16.72-45.88-16.72-62.58,0l-50.77,50.76c-28.79,28.8-73.42,36.22-111,18.48-14.92-7-30.36-13.53-45.87-19.3-38.52-14.31-64.4-51-64.4-91.24V182.41a44.3,44.3,0,0,0-44.25-44.25H1002.17a44.3,44.3,0,0,0-44.25,44.25v71.67c0,40.72-26.28,77.53-65.39,91.6-15.5,5.58-31,11.91-46,18.82-37.38,17.15-81.67,9.57-110.17-18.95l-52.42-52.42c-16.72-16.72-45.86-16.72-62.59,0L489,425.48a44.32,44.32,0,0,0,0,62.59l93,89.45a26.32,26.32,0,0,1-36.48,37.94l-93.42-89.82C414,487.51,414,426,451.74,388.27L584.08,255.93a96.89,96.89,0,0,1,137,0l52.41,52.42c13.22,13.22,33.24,16.49,51,8.33,16.41-7.53,33.29-14.43,50.18-20.51,18.58-6.68,30.58-23.2,30.58-42.08V182.41a97,97,0,0,1,96.89-96.89h187.15a97,97,0,0,1,96.89,96.89v74.17c0,18.66,11.82,35.11,30.09,41.9,16.92,6.29,33.73,13.36,50,21,17.86,8.44,38,5.26,51.37-8.09l50.77-50.76a96.86,96.86,0,0,1,137,0L1737.78,393a97,97,0,0,1,0,137l-52.43,52.41c-13.22,13.22-16.48,33.24-8.33,51,7.52,16.38,14.42,33.26,20.51,50.18,6.68,18.58,23.2,30.58,42.08,30.58h71.67a97,97,0,0,1,96.89,96.89V998.24a97,97,0,0,1-96.89,96.89h-74.17c-18.67,0-35.12,11.81-41.91,30.09-6.27,16.9-13.34,33.72-21,50-8.43,17.86-5.26,38,8.08,51.37l50.76,50.76a96.9,96.9,0,0,1,0,137L1600.71,1546.7A96.26,96.26,0,0,1,1532.2,1575.08Z"/><path d="M1362.89,1181a26.31,26.31,0,0,1-20.51-42.78c50.06-62.42,76.51-137.8,76.51-218,0-192.27-156.42-348.68-348.68-348.68a345.57,345.57,0,0,0-210.43,70.63A26.31,26.31,0,1,1,828,600.23c70.18-53.2,153.94-81.32,242.22-81.32,221.29,0,401.32,180,401.32,401.32a402.37,402.37,0,0,1-88.09,250.9A26.25,26.25,0,0,1,1362.89,1181Z"/></svg>