<svg id="Layer_1" data-name="Layer 1" xmlns="http://www.w3.org/2000/svg" viewBox="0 0 2000 2000"><defs><style>.cls-1{fill:#ffde59;}</style></defs><title>fiverr3a</title><circle class="cls-1" cx="1000" cy="1000" r="1000"/><path d="M1760.82,1467.11H739.44a39.47,39.47,0,1,1,0-78.95H1760.82a67.51,67.51,0,0,0,67.43-67.43V324.57A25.26,25.26,0,0,0,1803,299.34H327.16a25.25,25.25,0,0,0-25.22,25.22v435.3a39.47,39.47,0,1,1-78.95,0V324.57A104.29,104.29,0,0,1,327.16,220.39H1803A104.29,104.29,0,0,1,1907.2,324.57v996.16C1907.2,1401.44,1841.54,1467.11,1760.82,1467.11Z"/><path d="M886.37,1721.49A39.47,39.47,0,0,1,846.9,1682V1427.63a39.47,39.47,0,0,1,78.95,0V1682A39.47,39.47,0,0,1,886.37,1721.49Z"/><path d="M1224.08,1721.49a39.47,39.47,0,0,1-39.47-39.47V1427.63a39.47,39.47,0,0,1,78.95,0V1682A39.47,39.47,0,0,1,1224.08,1721.49Z"/><path d="M1360.06,1721.49H765.75a39.47,39.47,0,0,1,0-78.95h594.3a39.47,39.47,0,0,1,0,78.95Z"/><path d="M1695,1217.11H765.75a32.89,32.89,0,0,1,0-65.79H1695a32.89,32.89,0,0,1,0,65.79Z"/><path d="M519,1721.49H163.79A118.55,118.55,0,0,1,45.37,1603.07V1018.64A118.55,118.55,0,0,1,163.79,900.22H519a118.55,118.55,0,0,1,118.42,118.42v584.42A118.55,118.55,0,0,1,519,1721.49ZM163.79,979.17a39.52,39.52,0,0,0-39.47,39.47v584.42a39.52,39.52,0,0,0,39.47,39.47H519a39.52,39.52,0,0,0,39.47-39.47V1018.64A39.52,39.52,0,0,0,519,979.17Z"/><circle cx="341.42" cy="1558.11" r="23.43"/><circle cx="1062.9" cy="1310.86" r="23.43"/></svg>