<svg id="Layer_1" data-name="Layer 1" xmlns="http://www.w3.org/2000/svg" viewBox="0 0 2000 2000"><defs><style>.cls-1{fill:#ffde59;}</style></defs><title>fiverr2a</title><circle class="cls-1" cx="1000" cy="1000" r="1000"/><path d="M678.49,1923.24a79.36,79.36,0,0,1-36-8.83c-33.75-17.13-49.85-53.21-40.06-89.78l183.71-686.47H478.4A106.81,106.81,0,0,1,379.5,991L736,116.89a71.27,71.27,0,0,1,66.25-44.52h560.14a97.64,97.64,0,0,1,84.88,145.88L1201.26,651.32h342.07a88.18,88.18,0,0,1,69,143.05L738.72,1893.62C723.12,1913,701.21,1923.24,678.49,1923.24ZM802.29,138.16a5.73,5.73,0,0,0-5.33,3.58L440.42,1015.86a41,41,0,0,0,38,56.51H790.77a62.21,62.21,0,0,1,60.08,78.28l-184.92,691c-2.13,7.94,2.26,12.05,6.3,14.11s10,3.16,15.12-3.24l873.5-1099.08a22.4,22.4,0,0,0-17.53-36.33h-369a50.12,50.12,0,0,1-43.57-74.89l259.35-456.47a31.85,31.85,0,0,0-27.68-47.59Zm-35.79-8.85h0Z"/><path d="M960.53,263.16H842.11a26.32,26.32,0,1,1,0-52.63H960.53a26.32,26.32,0,1,1,0,52.63Z"/><circle cx="1059.21" cy="236.84" r="29.61"/></svg>