<?xml version="1.0" encoding="utf-8"?>
<!-- Generator: Adobe Illustrator 21.0.0, SVG Export Plug-In . SVG Version: 6.00 Build 0)  -->
<svg version="1.1" id="Layer_1" xmlns="http://www.w3.org/2000/svg" xmlns:xlink="http://www.w3.org/1999/xlink" x="0px" y="0px"
	 viewBox="0 0 2000 2000" style="enable-background:new 0 0 2000 2000;" xml:space="preserve">
<style type="text/css">
	.st0{fill:#FFDE59;}
</style>
<g>
	<g>
		<circle class="st0" cx="1002" cy="990.7" r="990.7"/>
	</g>
	<g>
		<path d="M1371.8,1567.4H636.5l-4.4-34.1c-14.2-110.6-36.4-193-48.4-232.3c-4.2-13.7-11.9-26.6-22.4-37.1
			C444.1,1146,379.6,989.6,379.6,823.4c0-171.3,68-331.1,191.4-450c123.4-118.8,285.8-180.6,457.4-174.2
			c314.3,11.9,577.4,266.8,598.8,580.3c12.3,180.4-53.5,357-180.6,484.7c-10.2,10.2-17.8,22.9-22,36.7
			c-12,39.3-34.2,121.7-48.4,232.3L1371.8,1567.4z M705,1489.1h598.4c14.8-99.2,35-173.6,46.4-211c7.9-25.9,22.2-49.8,41.4-69.1
			c111.2-111.7,168.8-266.3,158-424.2c-18.8-274.2-248.8-497.1-523.8-507.5c-150.1-5.7-292.3,48.4-400.2,152.4
			c-108,104-167.5,243.8-167.5,393.7c0,145.3,56.5,282.1,159,385.3c19.4,19.6,33.9,43.6,41.8,69.5C670,1315.6,690.1,1390,705,1489.1
			z"/>
	</g>
	<g>
		<path d="M1217.5,1783.6H790.8c-1.9,0-3.7,0-5.5-0.2c-76.6-2.7-137.8-62.5-142.8-139.8c-2.4-38.3-5.9-75.4-10.4-110.3
			c-2.8-21.4,12.3-41,33.7-43.8c21.4-2.9,41,12.3,43.8,33.7c4.8,36.7,8.5,75.6,10.9,115.5c2.4,37,31.7,65.6,68.2,66.6l2.5,0.1
			l428.1-0.1c36.6-0.9,65.9-29.5,68.2-66.6c2.3-37.8,6-76.6,10.9-115.4c2.7-21.4,22.3-36.5,43.7-33.9c21.4,2.7,36.6,22.3,33.9,43.7
			c-4.7,37.1-8.2,74.2-10.5,110.4c-4.8,77.3-66,137.2-142.8,139.9C1221.1,1783.6,1219.4,1783.6,1217.5,1783.6z"/>
	</g>
	<g>
		<path d="M1004.2,2000c-140.9,0-255.5-114.6-255.5-255.5c0-21.6,17.5-39.2,39.1-39.2c21.6,0,39.1,17.4,39.1,39
			c0,97.9,79.5,177.4,177.3,177.4c97.7,0,177.1-79.5,177.1-177.3c0-21.6,17.5-39.2,39.1-39.2s39.1,17.4,39.1,39v0.1
			C1259.6,1885.4,1145,2000,1004.2,2000z"/>
	</g>
	<g>
		<path d="M1382.2,875.5c-20.4,0-37.6-15.8-39-36.4c-15.2-222.8-132-338.8-357-354.7c-21.5-1.5-37.8-20.2-36.2-41.8
			c1.5-21.5,20-37.8,41.8-36.2c263.1,18.6,411.6,166.4,429.5,427.4c1.5,21.5-14.8,40.2-36.3,41.7
			C1384,875.5,1383.1,875.5,1382.2,875.5z"/>
	</g>
	<g>
		<path d="M1773.4,625.8c-8.5,0-16.9-3.3-23.3-9.8c-12.6-12.9-12.3-33.5,0.5-46.1l82.4-80.5c12.9-12.6,33.5-12.3,46.1,0.5
			c12.6,12.9,12.3,33.5-0.5,46.1l-82.4,80.5C1789.8,622.7,1781.6,625.8,1773.4,625.8z"/>
	</g>
	<g>
		<path d="M1877.9,907.6c-0.1,0-0.3,0-0.4,0l-115.2-1.4c-18-0.2-32.4-15-32.2-33c0.2-18,14.9-33,33-32.2l115.2,1.4
			c18,0.2,32.4,15,32.2,33C1910.3,893.3,1895.7,907.6,1877.9,907.6z"/>
	</g>
	<g>
		<path d="M1857.6,1270.7c-8.5,0-17-3.3-23.4-9.9l-80.3-82.7c-12.5-12.9-12.2-33.5,0.7-46.1c12.9-12.5,33.5-12.2,46.1,0.7l80.3,82.7
			c12.5,12.9,12.2,33.5-0.7,46.1C1874,1267.7,1865.8,1270.7,1857.6,1270.7z"/>
	</g>
	<g>
		<path d="M235.1,625.8c-8.2,0-16.4-3.1-22.8-9.3L129.9,536c-12.9-12.6-13.1-33.2-0.5-46.1c12.6-12.9,33.2-13.1,46.1-0.5l82.4,80.5
			c12.9,12.6,13.1,33.2,0.5,46.1C252,622.5,243.5,625.8,235.1,625.8z"/>
	</g>
	<g>
		<path d="M130.5,907.6c-17.8,0-32.4-14.3-32.6-32.2c-0.2-18,14.2-32.8,32.2-33l115.2-1.4c18-0.7,32.8,14.2,33,32.2
			c0.2,18-14.2,32.8-32.2,33l-115.2,1.4C130.8,907.6,130.7,907.6,130.5,907.6z"/>
	</g>
	<g>
		<path d="M150.8,1270.7c-8.2,0-16.4-3.1-22.7-9.2c-12.9-12.5-13.2-33.2-0.7-46.1l80.3-82.7c12.5-12.9,33.2-13.2,46.1-0.7
			c12.9,12.5,13.2,33.2,0.7,46.1l-80.3,82.7C167.8,1267.4,159.3,1270.7,150.8,1270.7z"/>
	</g>
</g>
</svg>
